<mxfile host="app.diagrams.net" modified="2023-05-15T14:40:23.921Z" agent="Mozilla/5.0 (Windows NT 10.0; Win64; x64; rv:109.0) Gecko/20100101 Firefox/112.0" etag="RkwxTVTOcP5IwHTawpHc" version="21.2.9" type="github">
  <diagram name="Страница 1" id="6Qy9KXgtEiCa99kPZCro">
    <mxGraphModel dx="2607" dy="1422" grid="1" gridSize="10" guides="1" tooltips="1" connect="1" arrows="1" fold="1" page="1" pageScale="1" pageWidth="827" pageHeight="1169" math="0" shadow="0">
      <root>
        <mxCell id="0" />
        <mxCell id="1" parent="0" />
        <mxCell id="vCZI6ark7r9UEHt2x8Z2-2" value="&lt;div&gt;Транспортная компания&lt;/div&gt;" style="swimlane;html=1;startSize=40;fontStyle=0;collapsible=0;horizontal=0;swimlaneLine=1;swimlaneFillColor=#ffffff;strokeWidth=2;whiteSpace=wrap;fillColor=#fff2cc;gradientColor=#ffd966;strokeColor=#d6b656;" vertex="1" parent="1">
          <mxGeometry x="10" y="50" width="1160" height="870" as="geometry" />
        </mxCell>
        <mxCell id="vCZI6ark7r9UEHt2x8Z2-12" value="Клиентский отдел" style="swimlane;html=1;startSize=50;fontStyle=0;collapsible=0;horizontal=0;swimlaneLine=1;swimlaneFillColor=#ffffff;strokeWidth=2;whiteSpace=wrap;fillColor=#f8cecc;strokeColor=#b85450;" vertex="1" parent="vCZI6ark7r9UEHt2x8Z2-2">
          <mxGeometry x="540" width="620" height="360" as="geometry" />
        </mxCell>
        <mxCell id="vCZI6ark7r9UEHt2x8Z2-25" value="Диспетчер" style="swimlane;html=1;startSize=50;fontStyle=0;collapsible=0;horizontal=0;swimlaneLine=1;swimlaneFillColor=#ffffff;strokeWidth=2;whiteSpace=wrap;fillColor=#b1ddf0;strokeColor=#10739e;" vertex="1" parent="vCZI6ark7r9UEHt2x8Z2-12">
          <mxGeometry x="50" y="220" width="570" height="140" as="geometry" />
        </mxCell>
        <mxCell id="vCZI6ark7r9UEHt2x8Z2-144" value="Открытие спора" style="points=[[0.25,0,0],[0.5,0,0],[0.75,0,0],[1,0.25,0],[1,0.5,0],[1,0.75,0],[0.75,1,0],[0.5,1,0],[0.25,1,0],[0,0.75,0],[0,0.5,0],[0,0.25,0]];shape=mxgraph.bpmn.task;whiteSpace=wrap;rectStyle=rounded;size=10;html=1;container=1;expand=0;collapsible=0;taskMarker=abstract;" vertex="1" parent="vCZI6ark7r9UEHt2x8Z2-25">
          <mxGeometry x="320" y="20" width="120" height="80" as="geometry" />
        </mxCell>
        <mxCell id="vCZI6ark7r9UEHt2x8Z2-69" value="Отдел продаж" style="swimlane;html=1;startSize=50;fontStyle=0;collapsible=0;horizontal=0;swimlaneLine=1;swimlaneFillColor=#ffffff;strokeWidth=2;whiteSpace=wrap;fillColor=#e3c800;fontColor=#000000;strokeColor=#B09500;" vertex="1" parent="vCZI6ark7r9UEHt2x8Z2-12">
          <mxGeometry x="50" width="570" height="220" as="geometry" />
        </mxCell>
        <mxCell id="vCZI6ark7r9UEHt2x8Z2-52" value="Предварительная обработка заказа" style="points=[[0.25,0,0],[0.5,0,0],[0.75,0,0],[1,0.25,0],[1,0.5,0],[1,0.75,0],[0.75,1,0],[0.5,1,0],[0.25,1,0],[0,0.75,0],[0,0.5,0],[0,0.25,0]];shape=mxgraph.bpmn.task;whiteSpace=wrap;rectStyle=rounded;size=10;html=1;container=1;expand=0;collapsible=0;taskMarker=abstract;" vertex="1" parent="vCZI6ark7r9UEHt2x8Z2-69">
          <mxGeometry x="70" y="25" width="120" height="80" as="geometry" />
        </mxCell>
        <mxCell id="vCZI6ark7r9UEHt2x8Z2-89" style="edgeStyle=orthogonalEdgeStyle;rounded=0;orthogonalLoop=1;jettySize=auto;html=1;" edge="1" parent="vCZI6ark7r9UEHt2x8Z2-69" source="vCZI6ark7r9UEHt2x8Z2-76" target="vCZI6ark7r9UEHt2x8Z2-88">
          <mxGeometry relative="1" as="geometry" />
        </mxCell>
        <mxCell id="vCZI6ark7r9UEHt2x8Z2-76" value="Оценка состояния заявки" style="points=[[0.25,0,0],[0.5,0,0],[0.75,0,0],[1,0.25,0],[1,0.5,0],[1,0.75,0],[0.75,1,0],[0.5,1,0],[0.25,1,0],[0,0.75,0],[0,0.5,0],[0,0.25,0]];shape=mxgraph.bpmn.task;whiteSpace=wrap;rectStyle=rounded;size=10;html=1;container=1;expand=0;collapsible=0;taskMarker=abstract;" vertex="1" parent="vCZI6ark7r9UEHt2x8Z2-69">
          <mxGeometry x="85" y="130" width="120" height="80" as="geometry" />
        </mxCell>
        <mxCell id="vCZI6ark7r9UEHt2x8Z2-94" style="edgeStyle=orthogonalEdgeStyle;rounded=0;orthogonalLoop=1;jettySize=auto;html=1;entryX=0;entryY=0.5;entryDx=0;entryDy=0;entryPerimeter=0;" edge="1" parent="vCZI6ark7r9UEHt2x8Z2-69" source="vCZI6ark7r9UEHt2x8Z2-88" target="vCZI6ark7r9UEHt2x8Z2-95">
          <mxGeometry relative="1" as="geometry">
            <mxPoint x="360" y="120" as="targetPoint" />
            <Array as="points">
              <mxPoint x="260" y="120" />
              <mxPoint x="260" y="120" />
            </Array>
          </mxGeometry>
        </mxCell>
        <mxCell id="vCZI6ark7r9UEHt2x8Z2-121" style="edgeStyle=orthogonalEdgeStyle;rounded=0;orthogonalLoop=1;jettySize=auto;html=1;exitX=0.5;exitY=1;exitDx=0;exitDy=0;exitPerimeter=0;entryX=0;entryY=0.75;entryDx=0;entryDy=0;entryPerimeter=0;" edge="1" parent="vCZI6ark7r9UEHt2x8Z2-69" source="vCZI6ark7r9UEHt2x8Z2-88" target="vCZI6ark7r9UEHt2x8Z2-115">
          <mxGeometry relative="1" as="geometry">
            <Array as="points">
              <mxPoint x="270" y="170" />
              <mxPoint x="270" y="165" />
            </Array>
          </mxGeometry>
        </mxCell>
        <mxCell id="vCZI6ark7r9UEHt2x8Z2-88" value="&lt;div&gt;Есть возможность &lt;br&gt;&lt;/div&gt;&lt;div&gt;сформировать заказ?&lt;/div&gt;" style="points=[[0.25,0.25,0],[0.5,0,0],[0.75,0.25,0],[1,0.5,0],[0.75,0.75,0],[0.5,1,0],[0.25,0.75,0],[0,0.5,0]];shape=mxgraph.bpmn.gateway2;html=1;verticalLabelPosition=bottom;labelBackgroundColor=#ffffff;verticalAlign=top;align=center;perimeter=rhombusPerimeter;outlineConnect=0;outline=none;symbol=none;" vertex="1" parent="vCZI6ark7r9UEHt2x8Z2-69">
          <mxGeometry x="225" y="120" width="50" height="50" as="geometry" />
        </mxCell>
        <mxCell id="vCZI6ark7r9UEHt2x8Z2-95" value="да" style="points=[[0.25,0,0],[0.5,0,0],[0.75,0,0],[1,0.25,0],[1,0.5,0],[1,0.75,0],[0.75,1,0],[0.5,1,0],[0.25,1,0],[0,0.75,0],[0,0.5,0],[0,0.25,0]];shape=mxgraph.bpmn.task;whiteSpace=wrap;rectStyle=rounded;size=10;html=1;container=1;expand=0;collapsible=0;taskMarker=abstract;" vertex="1" parent="vCZI6ark7r9UEHt2x8Z2-69">
          <mxGeometry x="275" y="110" width="55" height="20" as="geometry" />
        </mxCell>
        <mxCell id="vCZI6ark7r9UEHt2x8Z2-123" style="edgeStyle=orthogonalEdgeStyle;rounded=0;orthogonalLoop=1;jettySize=auto;html=1;exitX=1;exitY=0.5;exitDx=0;exitDy=0;exitPerimeter=0;entryX=0;entryY=0.5;entryDx=0;entryDy=0;entryPerimeter=0;" edge="1" parent="vCZI6ark7r9UEHt2x8Z2-69" source="vCZI6ark7r9UEHt2x8Z2-115" target="vCZI6ark7r9UEHt2x8Z2-133">
          <mxGeometry relative="1" as="geometry">
            <Array as="points">
              <mxPoint x="330" y="146" />
            </Array>
          </mxGeometry>
        </mxCell>
        <mxCell id="vCZI6ark7r9UEHt2x8Z2-115" value="нет" style="points=[[0.25,0,0],[0.5,0,0],[0.75,0,0],[1,0.25,0],[1,0.5,0],[1,0.75,0],[0.75,1,0],[0.5,1,0],[0.25,1,0],[0,0.75,0],[0,0.5,0],[0,0.25,0]];shape=mxgraph.bpmn.task;whiteSpace=wrap;rectStyle=rounded;size=10;html=1;container=1;expand=0;collapsible=0;taskMarker=abstract;" vertex="1" parent="vCZI6ark7r9UEHt2x8Z2-69">
          <mxGeometry x="280" y="150" width="50" height="20" as="geometry" />
        </mxCell>
        <mxCell id="vCZI6ark7r9UEHt2x8Z2-134" style="edgeStyle=orthogonalEdgeStyle;rounded=0;orthogonalLoop=1;jettySize=auto;html=1;entryX=0;entryY=0.5;entryDx=0;entryDy=0;entryPerimeter=0;" edge="1" parent="vCZI6ark7r9UEHt2x8Z2-69" source="vCZI6ark7r9UEHt2x8Z2-133" target="vCZI6ark7r9UEHt2x8Z2-165">
          <mxGeometry relative="1" as="geometry">
            <mxPoint x="460" y="200" as="targetPoint" />
            <Array as="points">
              <mxPoint x="390" y="185" />
            </Array>
          </mxGeometry>
        </mxCell>
        <mxCell id="vCZI6ark7r9UEHt2x8Z2-133" value="Закрытие заявки" style="points=[[0.25,0,0],[0.5,0,0],[0.75,0,0],[1,0.25,0],[1,0.5,0],[1,0.75,0],[0.75,1,0],[0.5,1,0],[0.25,1,0],[0,0.75,0],[0,0.5,0],[0,0.25,0]];shape=mxgraph.bpmn.task;whiteSpace=wrap;rectStyle=rounded;size=10;html=1;container=1;expand=0;collapsible=0;taskMarker=abstract;" vertex="1" parent="vCZI6ark7r9UEHt2x8Z2-69">
          <mxGeometry x="350" y="131" width="90" height="29" as="geometry" />
        </mxCell>
        <mxCell id="vCZI6ark7r9UEHt2x8Z2-158" style="edgeStyle=orthogonalEdgeStyle;rounded=0;orthogonalLoop=1;jettySize=auto;html=1;entryX=1;entryY=0.5;entryDx=0;entryDy=0;entryPerimeter=0;" edge="1" parent="vCZI6ark7r9UEHt2x8Z2-69" source="vCZI6ark7r9UEHt2x8Z2-156" target="vCZI6ark7r9UEHt2x8Z2-133">
          <mxGeometry relative="1" as="geometry" />
        </mxCell>
        <mxCell id="vCZI6ark7r9UEHt2x8Z2-156" value="Оформление продажи" style="points=[[0.25,0,0],[0.5,0,0],[0.75,0,0],[1,0.25,0],[1,0.5,0],[1,0.75,0],[0.75,1,0],[0.5,1,0],[0.25,1,0],[0,0.75,0],[0,0.5,0],[0,0.25,0]];shape=mxgraph.bpmn.task;whiteSpace=wrap;rectStyle=rounded;size=10;html=1;container=1;expand=0;collapsible=0;taskMarker=abstract;" vertex="1" parent="vCZI6ark7r9UEHt2x8Z2-69">
          <mxGeometry x="390" y="25" width="120" height="80" as="geometry" />
        </mxCell>
        <mxCell id="vCZI6ark7r9UEHt2x8Z2-165" value="" style="points=[[0.145,0.145,0],[0.5,0,0],[0.855,0.145,0],[1,0.5,0],[0.855,0.855,0],[0.5,1,0],[0.145,0.855,0],[0,0.5,0]];shape=mxgraph.bpmn.event;html=1;verticalLabelPosition=bottom;labelBackgroundColor=#ffffff;verticalAlign=top;align=center;perimeter=ellipsePerimeter;outlineConnect=0;aspect=fixed;outline=end;symbol=terminate2;" vertex="1" parent="vCZI6ark7r9UEHt2x8Z2-69">
          <mxGeometry x="420" y="160" width="50" height="50" as="geometry" />
        </mxCell>
        <mxCell id="vCZI6ark7r9UEHt2x8Z2-15" value="&lt;div&gt;Эксплуатационный отдел&lt;/div&gt;" style="swimlane;html=1;startSize=50;fontStyle=0;collapsible=0;horizontal=0;swimlaneLine=1;swimlaneFillColor=#ffffff;strokeWidth=2;whiteSpace=wrap;fillColor=#f8cecc;strokeColor=#b85450;" vertex="1" parent="vCZI6ark7r9UEHt2x8Z2-2">
          <mxGeometry x="540" y="470" width="520" height="220" as="geometry" />
        </mxCell>
        <mxCell id="vCZI6ark7r9UEHt2x8Z2-97" style="edgeStyle=orthogonalEdgeStyle;rounded=0;orthogonalLoop=1;jettySize=auto;html=1;entryX=0;entryY=0.5;entryDx=0;entryDy=0;entryPerimeter=0;" edge="1" parent="vCZI6ark7r9UEHt2x8Z2-15" source="vCZI6ark7r9UEHt2x8Z2-30" target="vCZI6ark7r9UEHt2x8Z2-108">
          <mxGeometry relative="1" as="geometry" />
        </mxCell>
        <mxCell id="vCZI6ark7r9UEHt2x8Z2-30" value="Погрузка товара" style="points=[[0.25,0,0],[0.5,0,0],[0.75,0,0],[1,0.25,0],[1,0.5,0],[1,0.75,0],[0.75,1,0],[0.5,1,0],[0.25,1,0],[0,0.75,0],[0,0.5,0],[0,0.25,0]];shape=mxgraph.bpmn.task;whiteSpace=wrap;rectStyle=rounded;size=10;html=1;container=1;expand=0;collapsible=0;taskMarker=abstract;" vertex="1" parent="vCZI6ark7r9UEHt2x8Z2-15">
          <mxGeometry x="60" y="130" width="120" height="80" as="geometry" />
        </mxCell>
        <mxCell id="vCZI6ark7r9UEHt2x8Z2-31" value="Исполнение маршрута" style="points=[[0.25,0,0],[0.5,0,0],[0.75,0,0],[1,0.25,0],[1,0.5,0],[1,0.75,0],[0.75,1,0],[0.5,1,0],[0.25,1,0],[0,0.75,0],[0,0.5,0],[0,0.25,0]];shape=mxgraph.bpmn.task;whiteSpace=wrap;rectStyle=rounded;size=10;html=1;container=1;expand=0;collapsible=0;taskMarker=abstract;" vertex="1" parent="vCZI6ark7r9UEHt2x8Z2-15">
          <mxGeometry x="380" y="20" width="120" height="80" as="geometry" />
        </mxCell>
        <mxCell id="vCZI6ark7r9UEHt2x8Z2-107" style="edgeStyle=orthogonalEdgeStyle;rounded=0;orthogonalLoop=1;jettySize=auto;html=1;" edge="1" parent="vCZI6ark7r9UEHt2x8Z2-15" source="vCZI6ark7r9UEHt2x8Z2-106" target="vCZI6ark7r9UEHt2x8Z2-30">
          <mxGeometry relative="1" as="geometry" />
        </mxCell>
        <mxCell id="vCZI6ark7r9UEHt2x8Z2-106" value="Сбор документов" style="points=[[0.25,0,0],[0.5,0,0],[0.75,0,0],[1,0.25,0],[1,0.5,0],[1,0.75,0],[0.75,1,0],[0.5,1,0],[0.25,1,0],[0,0.75,0],[0,0.5,0],[0,0.25,0]];shape=mxgraph.bpmn.task;whiteSpace=wrap;rectStyle=rounded;size=10;html=1;container=1;expand=0;collapsible=0;taskMarker=abstract;" vertex="1" parent="vCZI6ark7r9UEHt2x8Z2-15">
          <mxGeometry x="60" y="25" width="120" height="80" as="geometry" />
        </mxCell>
        <mxCell id="vCZI6ark7r9UEHt2x8Z2-109" style="edgeStyle=orthogonalEdgeStyle;rounded=0;orthogonalLoop=1;jettySize=auto;html=1;exitX=0.5;exitY=0;exitDx=0;exitDy=0;exitPerimeter=0;entryX=0.5;entryY=1;entryDx=0;entryDy=0;entryPerimeter=0;" edge="1" parent="vCZI6ark7r9UEHt2x8Z2-15" source="vCZI6ark7r9UEHt2x8Z2-108" target="vCZI6ark7r9UEHt2x8Z2-110">
          <mxGeometry relative="1" as="geometry">
            <mxPoint x="305" y="120" as="targetPoint" />
            <Array as="points">
              <mxPoint x="245" y="110" />
              <mxPoint x="245" y="110" />
            </Array>
          </mxGeometry>
        </mxCell>
        <mxCell id="vCZI6ark7r9UEHt2x8Z2-113" style="edgeStyle=orthogonalEdgeStyle;rounded=0;orthogonalLoop=1;jettySize=auto;html=1;exitX=1;exitY=0.5;exitDx=0;exitDy=0;exitPerimeter=0;entryX=0;entryY=0.5;entryDx=0;entryDy=0;entryPerimeter=0;" edge="1" parent="vCZI6ark7r9UEHt2x8Z2-15" source="vCZI6ark7r9UEHt2x8Z2-108" target="vCZI6ark7r9UEHt2x8Z2-112">
          <mxGeometry relative="1" as="geometry" />
        </mxCell>
        <mxCell id="vCZI6ark7r9UEHt2x8Z2-108" value="Все в порядке?" style="points=[[0.25,0.25,0],[0.5,0,0],[0.75,0.25,0],[1,0.5,0],[0.75,0.75,0],[0.5,1,0],[0.25,0.75,0],[0,0.5,0]];shape=mxgraph.bpmn.gateway2;html=1;verticalLabelPosition=bottom;labelBackgroundColor=#ffffff;verticalAlign=top;align=center;perimeter=rhombusPerimeter;outlineConnect=0;outline=none;symbol=none;" vertex="1" parent="vCZI6ark7r9UEHt2x8Z2-15">
          <mxGeometry x="220" y="145" width="50" height="50" as="geometry" />
        </mxCell>
        <mxCell id="vCZI6ark7r9UEHt2x8Z2-118" style="edgeStyle=orthogonalEdgeStyle;rounded=0;orthogonalLoop=1;jettySize=auto;html=1;" edge="1" parent="vCZI6ark7r9UEHt2x8Z2-15" source="vCZI6ark7r9UEHt2x8Z2-110" target="vCZI6ark7r9UEHt2x8Z2-31">
          <mxGeometry relative="1" as="geometry" />
        </mxCell>
        <mxCell id="vCZI6ark7r9UEHt2x8Z2-110" value="Да" style="points=[[0.25,0,0],[0.5,0,0],[0.75,0,0],[1,0.25,0],[1,0.5,0],[1,0.75,0],[0.75,1,0],[0.5,1,0],[0.25,1,0],[0,0.75,0],[0,0.5,0],[0,0.25,0]];shape=mxgraph.bpmn.task;whiteSpace=wrap;rectStyle=rounded;size=10;html=1;container=1;expand=0;collapsible=0;taskMarker=abstract;" vertex="1" parent="vCZI6ark7r9UEHt2x8Z2-15">
          <mxGeometry x="190" y="50" width="110" height="20" as="geometry" />
        </mxCell>
        <mxCell id="vCZI6ark7r9UEHt2x8Z2-112" value="Нет" style="points=[[0.25,0,0],[0.5,0,0],[0.75,0,0],[1,0.25,0],[1,0.5,0],[1,0.75,0],[0.75,1,0],[0.5,1,0],[0.25,1,0],[0,0.75,0],[0,0.5,0],[0,0.25,0]];shape=mxgraph.bpmn.task;whiteSpace=wrap;rectStyle=rounded;size=10;html=1;container=1;expand=0;collapsible=0;taskMarker=abstract;" vertex="1" parent="vCZI6ark7r9UEHt2x8Z2-15">
          <mxGeometry x="340" y="160" width="110" height="20" as="geometry" />
        </mxCell>
        <mxCell id="vCZI6ark7r9UEHt2x8Z2-141" value="Возврат" style="points=[[0.25,0,0],[0.5,0,0],[0.75,0,0],[1,0.25,0],[1,0.5,0],[1,0.75,0],[0.75,1,0],[0.5,1,0],[0.25,1,0],[0,0.75,0],[0,0.5,0],[0,0.25,0]];shape=mxgraph.bpmn.task;whiteSpace=wrap;rectStyle=rounded;size=10;html=1;container=1;expand=0;collapsible=0;taskMarker=abstract;" vertex="1" parent="vCZI6ark7r9UEHt2x8Z2-15">
          <mxGeometry x="350" y="190" width="100" height="20" as="geometry" />
        </mxCell>
        <mxCell id="vCZI6ark7r9UEHt2x8Z2-36" value="Стратегический отдел управления" style="swimlane;html=1;startSize=50;fontStyle=0;collapsible=0;horizontal=0;swimlaneLine=1;swimlaneFillColor=#ffffff;strokeWidth=2;whiteSpace=wrap;fillColor=#f5f5f5;fontColor=#333333;strokeColor=#666666;" vertex="1" parent="vCZI6ark7r9UEHt2x8Z2-2">
          <mxGeometry x="40" width="440" height="260" as="geometry" />
        </mxCell>
        <mxCell id="vCZI6ark7r9UEHt2x8Z2-17" value="Директор" style="swimlane;html=1;startSize=50;fontStyle=0;collapsible=0;horizontal=0;swimlaneLine=1;swimlaneFillColor=#ffffff;strokeWidth=2;whiteSpace=wrap;fillColor=#0050ef;fontColor=#ffffff;strokeColor=#001DBC;" vertex="1" parent="vCZI6ark7r9UEHt2x8Z2-36">
          <mxGeometry x="50" width="390" height="140" as="geometry" />
        </mxCell>
        <mxCell id="vCZI6ark7r9UEHt2x8Z2-146" value="Решение по спору" style="points=[[0.25,0,0],[0.5,0,0],[0.75,0,0],[1,0.25,0],[1,0.5,0],[1,0.75,0],[0.75,1,0],[0.5,1,0],[0.25,1,0],[0,0.75,0],[0,0.5,0],[0,0.25,0]];shape=mxgraph.bpmn.task;whiteSpace=wrap;rectStyle=rounded;size=10;html=1;container=1;expand=0;collapsible=0;taskMarker=abstract;" vertex="1" parent="vCZI6ark7r9UEHt2x8Z2-17">
          <mxGeometry x="110" y="30" width="120" height="80" as="geometry" />
        </mxCell>
        <mxCell id="vCZI6ark7r9UEHt2x8Z2-38" value="Бухгалтерия" style="swimlane;html=1;startSize=50;fontStyle=0;collapsible=0;horizontal=0;swimlaneLine=1;swimlaneFillColor=#ffffff;strokeWidth=2;whiteSpace=wrap;fillColor=#d80073;fontColor=#ffffff;strokeColor=#A50040;" vertex="1" parent="vCZI6ark7r9UEHt2x8Z2-36">
          <mxGeometry x="50" y="140" width="390" height="120" as="geometry" />
        </mxCell>
        <mxCell id="vCZI6ark7r9UEHt2x8Z2-130" style="edgeStyle=orthogonalEdgeStyle;rounded=0;orthogonalLoop=1;jettySize=auto;html=1;entryX=1;entryY=0.5;entryDx=0;entryDy=0;entryPerimeter=0;" edge="1" parent="vCZI6ark7r9UEHt2x8Z2-38" source="vCZI6ark7r9UEHt2x8Z2-128" target="vCZI6ark7r9UEHt2x8Z2-129">
          <mxGeometry relative="1" as="geometry" />
        </mxCell>
        <mxCell id="vCZI6ark7r9UEHt2x8Z2-128" value="Бухучет" style="points=[[0.25,0,0],[0.5,0,0],[0.75,0,0],[1,0.25,0],[1,0.5,0],[1,0.75,0],[0.75,1,0],[0.5,1,0],[0.25,1,0],[0,0.75,0],[0,0.5,0],[0,0.25,0]];shape=mxgraph.bpmn.task;whiteSpace=wrap;rectStyle=rounded;size=10;html=1;container=1;expand=0;collapsible=0;taskMarker=abstract;" vertex="1" parent="vCZI6ark7r9UEHt2x8Z2-38">
          <mxGeometry x="290" y="15" width="90" height="80" as="geometry" />
        </mxCell>
        <mxCell id="vCZI6ark7r9UEHt2x8Z2-129" value="Налог" style="points=[[0.25,0,0],[0.5,0,0],[0.75,0,0],[1,0.25,0],[1,0.5,0],[1,0.75,0],[0.75,1,0],[0.5,1,0],[0.25,1,0],[0,0.75,0],[0,0.5,0],[0,0.25,0]];shape=mxgraph.bpmn.task;whiteSpace=wrap;rectStyle=rounded;size=10;html=1;container=1;expand=0;collapsible=0;taskMarker=abstract;" vertex="1" parent="vCZI6ark7r9UEHt2x8Z2-38">
          <mxGeometry x="125" y="15" width="120" height="80" as="geometry" />
        </mxCell>
        <mxCell id="vCZI6ark7r9UEHt2x8Z2-11" value="Транспортный отдел" style="swimlane;html=1;startSize=50;fontStyle=0;collapsible=0;horizontal=0;swimlaneLine=1;swimlaneFillColor=#ffffff;strokeWidth=2;whiteSpace=wrap;fillColor=#dae8fc;strokeColor=#6c8ebf;" vertex="1" parent="vCZI6ark7r9UEHt2x8Z2-2">
          <mxGeometry x="40" y="660" width="440" height="100" as="geometry" />
        </mxCell>
        <mxCell id="vCZI6ark7r9UEHt2x8Z2-83" style="edgeStyle=orthogonalEdgeStyle;rounded=0;orthogonalLoop=1;jettySize=auto;html=1;" edge="1" parent="vCZI6ark7r9UEHt2x8Z2-11" source="vCZI6ark7r9UEHt2x8Z2-29" target="vCZI6ark7r9UEHt2x8Z2-82">
          <mxGeometry relative="1" as="geometry" />
        </mxCell>
        <mxCell id="vCZI6ark7r9UEHt2x8Z2-29" value="Формирование маршрута" style="points=[[0.25,0,0],[0.5,0,0],[0.75,0,0],[1,0.25,0],[1,0.5,0],[1,0.75,0],[0.75,1,0],[0.5,1,0],[0.25,1,0],[0,0.75,0],[0,0.5,0],[0,0.25,0]];shape=mxgraph.bpmn.task;whiteSpace=wrap;rectStyle=rounded;size=10;html=1;container=1;expand=0;collapsible=0;taskMarker=abstract;" vertex="1" parent="vCZI6ark7r9UEHt2x8Z2-11">
          <mxGeometry x="190" y="10" width="120" height="80" as="geometry" />
        </mxCell>
        <mxCell id="vCZI6ark7r9UEHt2x8Z2-82" value="Назначение исполнителя" style="points=[[0.25,0,0],[0.5,0,0],[0.75,0,0],[1,0.25,0],[1,0.5,0],[1,0.75,0],[0.75,1,0],[0.5,1,0],[0.25,1,0],[0,0.75,0],[0,0.5,0],[0,0.25,0]];shape=mxgraph.bpmn.task;whiteSpace=wrap;rectStyle=rounded;size=10;html=1;container=1;expand=0;collapsible=0;taskMarker=abstract;" vertex="1" parent="vCZI6ark7r9UEHt2x8Z2-11">
          <mxGeometry x="60" y="10" width="120" height="80" as="geometry" />
        </mxCell>
        <mxCell id="vCZI6ark7r9UEHt2x8Z2-85" value="Отчет о плане доставки" style="points=[[0.25,0,0],[0.5,0,0],[0.75,0,0],[1,0.25,0],[1,0.5,0],[1,0.75,0],[0.75,1,0],[0.5,1,0],[0.25,1,0],[0,0.75,0],[0,0.5,0],[0,0.25,0]];shape=mxgraph.bpmn.task;whiteSpace=wrap;rectStyle=rounded;size=10;html=1;container=1;expand=0;collapsible=0;taskMarker=abstract;" vertex="1" parent="vCZI6ark7r9UEHt2x8Z2-11">
          <mxGeometry x="320" y="10" width="120" height="80" as="geometry" />
        </mxCell>
        <mxCell id="vCZI6ark7r9UEHt2x8Z2-16" value="Медпункт" style="swimlane;html=1;startSize=50;fontStyle=0;collapsible=0;horizontal=0;swimlaneLine=1;swimlaneFillColor=#ffffff;strokeWidth=2;whiteSpace=wrap;fillColor=#e1d5e7;strokeColor=#9673a6;" vertex="1" parent="vCZI6ark7r9UEHt2x8Z2-2">
          <mxGeometry x="40" y="760" width="440" height="105" as="geometry" />
        </mxCell>
        <mxCell id="vCZI6ark7r9UEHt2x8Z2-33" value="Допуск водителей в рейс" style="points=[[0.25,0,0],[0.5,0,0],[0.75,0,0],[1,0.25,0],[1,0.5,0],[1,0.75,0],[0.75,1,0],[0.5,1,0],[0.25,1,0],[0,0.75,0],[0,0.5,0],[0,0.25,0]];shape=mxgraph.bpmn.task;whiteSpace=wrap;rectStyle=rounded;size=10;html=1;container=1;expand=0;collapsible=0;taskMarker=abstract;" vertex="1" parent="vCZI6ark7r9UEHt2x8Z2-16">
          <mxGeometry x="60" y="12.5" width="120" height="80" as="geometry" />
        </mxCell>
        <mxCell id="vCZI6ark7r9UEHt2x8Z2-1" value="&lt;div&gt;Центральный склад&lt;/div&gt;" style="swimlane;html=1;startSize=50;fontStyle=0;collapsible=0;horizontal=0;swimlaneLine=1;swimlaneFillColor=#ffffff;strokeWidth=2;whiteSpace=wrap;fillColor=#fff2cc;strokeColor=#d6b656;" vertex="1" parent="vCZI6ark7r9UEHt2x8Z2-2">
          <mxGeometry x="40" y="260" width="440" height="260" as="geometry" />
        </mxCell>
        <mxCell id="vCZI6ark7r9UEHt2x8Z2-27" value="&lt;div&gt;Кладовщик&lt;/div&gt;" style="swimlane;html=1;startSize=50;fontStyle=0;collapsible=0;horizontal=0;swimlaneLine=1;swimlaneFillColor=#ffffff;strokeWidth=2;whiteSpace=wrap;fillColor=#008a00;fontColor=#ffffff;strokeColor=#005700;" vertex="1" parent="vCZI6ark7r9UEHt2x8Z2-1">
          <mxGeometry x="50" width="390" height="110" as="geometry" />
        </mxCell>
        <mxCell id="vCZI6ark7r9UEHt2x8Z2-55" value="Поиск товара" style="points=[[0.25,0,0],[0.5,0,0],[0.75,0,0],[1,0.25,0],[1,0.5,0],[1,0.75,0],[0.75,1,0],[0.5,1,0],[0.25,1,0],[0,0.75,0],[0,0.5,0],[0,0.25,0]];shape=mxgraph.bpmn.task;whiteSpace=wrap;rectStyle=rounded;size=10;html=1;container=1;expand=0;collapsible=0;taskMarker=abstract;" vertex="1" parent="vCZI6ark7r9UEHt2x8Z2-27">
          <mxGeometry x="210" y="20" width="120" height="60" as="geometry" />
        </mxCell>
        <mxCell id="vCZI6ark7r9UEHt2x8Z2-40" value="Подготовка к отправке" style="points=[[0.25,0,0],[0.5,0,0],[0.75,0,0],[1,0.25,0],[1,0.5,0],[1,0.75,0],[0.75,1,0],[0.5,1,0],[0.25,1,0],[0,0.75,0],[0,0.5,0],[0,0.25,0]];shape=mxgraph.bpmn.task;whiteSpace=wrap;rectStyle=rounded;size=10;html=1;container=1;expand=0;collapsible=0;taskMarker=abstract;" vertex="1" parent="vCZI6ark7r9UEHt2x8Z2-27">
          <mxGeometry x="60" y="15" width="120" height="80" as="geometry" />
        </mxCell>
        <mxCell id="vCZI6ark7r9UEHt2x8Z2-60" style="edgeStyle=orthogonalEdgeStyle;rounded=0;orthogonalLoop=1;jettySize=auto;html=1;entryX=0.5;entryY=1;entryDx=0;entryDy=0;entryPerimeter=0;" edge="1" parent="vCZI6ark7r9UEHt2x8Z2-1" source="vCZI6ark7r9UEHt2x8Z2-41" target="vCZI6ark7r9UEHt2x8Z2-56">
          <mxGeometry relative="1" as="geometry" />
        </mxCell>
        <mxCell id="vCZI6ark7r9UEHt2x8Z2-41" value="Виды товаров" style="shape=mxgraph.bpmn.data;labelPosition=center;verticalLabelPosition=bottom;align=center;verticalAlign=top;size=15;html=1;" vertex="1" parent="vCZI6ark7r9UEHt2x8Z2-1">
          <mxGeometry x="120" y="150" width="40" height="60" as="geometry" />
        </mxCell>
        <mxCell id="vCZI6ark7r9UEHt2x8Z2-63" style="edgeStyle=orthogonalEdgeStyle;rounded=0;orthogonalLoop=1;jettySize=auto;html=1;entryX=1;entryY=0.5;entryDx=0;entryDy=0;entryPerimeter=0;" edge="1" parent="vCZI6ark7r9UEHt2x8Z2-1" source="vCZI6ark7r9UEHt2x8Z2-56" target="vCZI6ark7r9UEHt2x8Z2-62">
          <mxGeometry relative="1" as="geometry" />
        </mxCell>
        <mxCell id="vCZI6ark7r9UEHt2x8Z2-73" style="edgeStyle=orthogonalEdgeStyle;rounded=0;orthogonalLoop=1;jettySize=auto;html=1;entryX=0;entryY=0.5;entryDx=0;entryDy=0;entryPerimeter=0;" edge="1" parent="vCZI6ark7r9UEHt2x8Z2-1" source="vCZI6ark7r9UEHt2x8Z2-56" target="vCZI6ark7r9UEHt2x8Z2-72">
          <mxGeometry relative="1" as="geometry" />
        </mxCell>
        <mxCell id="vCZI6ark7r9UEHt2x8Z2-56" value="есть на складе?" style="points=[[0.25,0.25,0],[0.5,0,0],[0.75,0.25,0],[1,0.5,0],[0.75,0.75,0],[0.5,1,0],[0.25,0.75,0],[0,0.5,0]];shape=mxgraph.bpmn.gateway2;html=1;verticalLabelPosition=bottom;labelBackgroundColor=#ffffff;verticalAlign=top;align=center;perimeter=rhombusPerimeter;outlineConnect=0;outline=none;symbol=none;" vertex="1" parent="vCZI6ark7r9UEHt2x8Z2-1">
          <mxGeometry x="295" y="100" width="50" height="50" as="geometry" />
        </mxCell>
        <mxCell id="vCZI6ark7r9UEHt2x8Z2-58" value="" style="edgeStyle=orthogonalEdgeStyle;rounded=0;orthogonalLoop=1;jettySize=auto;html=1;entryX=0.5;entryY=0.2;entryDx=0;entryDy=0;entryPerimeter=0;" edge="1" parent="vCZI6ark7r9UEHt2x8Z2-1" source="vCZI6ark7r9UEHt2x8Z2-55" target="vCZI6ark7r9UEHt2x8Z2-56">
          <mxGeometry relative="1" as="geometry" />
        </mxCell>
        <mxCell id="vCZI6ark7r9UEHt2x8Z2-66" style="edgeStyle=orthogonalEdgeStyle;rounded=0;orthogonalLoop=1;jettySize=auto;html=1;entryX=0.5;entryY=1;entryDx=0;entryDy=0;entryPerimeter=0;exitX=0;exitY=0.5;exitDx=0;exitDy=0;exitPerimeter=0;" edge="1" parent="vCZI6ark7r9UEHt2x8Z2-1" source="vCZI6ark7r9UEHt2x8Z2-62" target="vCZI6ark7r9UEHt2x8Z2-40">
          <mxGeometry relative="1" as="geometry" />
        </mxCell>
        <mxCell id="vCZI6ark7r9UEHt2x8Z2-62" value="Есть в наличии" style="points=[[0.25,0,0],[0.5,0,0],[0.75,0,0],[1,0.25,0],[1,0.5,0],[1,0.75,0],[0.75,1,0],[0.5,1,0],[0.25,1,0],[0,0.75,0],[0,0.5,0],[0,0.25,0]];shape=mxgraph.bpmn.task;whiteSpace=wrap;rectStyle=rounded;size=10;html=1;container=1;expand=0;collapsible=0;taskMarker=abstract;" vertex="1" parent="vCZI6ark7r9UEHt2x8Z2-1">
          <mxGeometry x="180" y="115" width="90" height="20" as="geometry" />
        </mxCell>
        <mxCell id="vCZI6ark7r9UEHt2x8Z2-72" value="Нет в наличии" style="points=[[0.25,0,0],[0.5,0,0],[0.75,0,0],[1,0.25,0],[1,0.5,0],[1,0.75,0],[0.75,1,0],[0.5,1,0],[0.25,1,0],[0,0.75,0],[0,0.5,0],[0,0.25,0]];shape=mxgraph.bpmn.task;whiteSpace=wrap;rectStyle=rounded;size=10;html=1;container=1;expand=0;collapsible=0;taskMarker=abstract;" vertex="1" parent="vCZI6ark7r9UEHt2x8Z2-1">
          <mxGeometry x="350" y="117.5" width="90" height="15" as="geometry" />
        </mxCell>
        <mxCell id="vCZI6ark7r9UEHt2x8Z2-59" style="edgeStyle=orthogonalEdgeStyle;rounded=0;orthogonalLoop=1;jettySize=auto;html=1;exitX=0.5;exitY=1;exitDx=0;exitDy=0;exitPerimeter=0;fillColor=#f8cecc;strokeColor=#b85450;" edge="1" parent="vCZI6ark7r9UEHt2x8Z2-2" source="vCZI6ark7r9UEHt2x8Z2-52">
          <mxGeometry relative="1" as="geometry">
            <mxPoint x="420" y="310" as="targetPoint" />
            <Array as="points">
              <mxPoint x="720" y="120" />
              <mxPoint x="490" y="120" />
              <mxPoint x="490" y="310" />
            </Array>
          </mxGeometry>
        </mxCell>
        <mxCell id="vCZI6ark7r9UEHt2x8Z2-74" style="edgeStyle=orthogonalEdgeStyle;rounded=0;orthogonalLoop=1;jettySize=auto;html=1;entryX=0;entryY=0.5;entryDx=0;entryDy=0;entryPerimeter=0;fillColor=#fff2cc;strokeColor=#d6b656;" edge="1" parent="vCZI6ark7r9UEHt2x8Z2-2" source="vCZI6ark7r9UEHt2x8Z2-72" target="vCZI6ark7r9UEHt2x8Z2-76">
          <mxGeometry relative="1" as="geometry">
            <Array as="points">
              <mxPoint x="530" y="385" />
              <mxPoint x="530" y="170" />
            </Array>
          </mxGeometry>
        </mxCell>
        <mxCell id="vCZI6ark7r9UEHt2x8Z2-81" style="edgeStyle=orthogonalEdgeStyle;rounded=0;orthogonalLoop=1;jettySize=auto;html=1;fillColor=#f8cecc;strokeColor=#b85450;entryX=0.5;entryY=0;entryDx=0;entryDy=0;entryPerimeter=0;" edge="1" parent="vCZI6ark7r9UEHt2x8Z2-2" source="vCZI6ark7r9UEHt2x8Z2-52" target="vCZI6ark7r9UEHt2x8Z2-29">
          <mxGeometry relative="1" as="geometry">
            <mxPoint x="290" y="660" as="targetPoint" />
            <Array as="points">
              <mxPoint x="510" y="65" />
              <mxPoint x="510" y="580" />
              <mxPoint x="290" y="580" />
            </Array>
          </mxGeometry>
        </mxCell>
        <mxCell id="vCZI6ark7r9UEHt2x8Z2-84" style="edgeStyle=orthogonalEdgeStyle;rounded=0;orthogonalLoop=1;jettySize=auto;html=1;" edge="1" parent="vCZI6ark7r9UEHt2x8Z2-2" source="vCZI6ark7r9UEHt2x8Z2-82" target="vCZI6ark7r9UEHt2x8Z2-33">
          <mxGeometry relative="1" as="geometry" />
        </mxCell>
        <mxCell id="vCZI6ark7r9UEHt2x8Z2-87" style="edgeStyle=orthogonalEdgeStyle;rounded=0;orthogonalLoop=1;jettySize=auto;html=1;entryX=0;entryY=0.75;entryDx=0;entryDy=0;entryPerimeter=0;fillColor=#dae8fc;strokeColor=#6c8ebf;exitX=1;exitY=0.5;exitDx=0;exitDy=0;exitPerimeter=0;" edge="1" parent="vCZI6ark7r9UEHt2x8Z2-2" source="vCZI6ark7r9UEHt2x8Z2-85" target="vCZI6ark7r9UEHt2x8Z2-76">
          <mxGeometry relative="1" as="geometry">
            <Array as="points">
              <mxPoint x="520" y="710" />
              <mxPoint x="520" y="190" />
            </Array>
          </mxGeometry>
        </mxCell>
        <mxCell id="vCZI6ark7r9UEHt2x8Z2-96" style="edgeStyle=orthogonalEdgeStyle;rounded=0;orthogonalLoop=1;jettySize=auto;html=1;entryX=0.5;entryY=0;entryDx=0;entryDy=0;entryPerimeter=0;" edge="1" parent="vCZI6ark7r9UEHt2x8Z2-2" source="vCZI6ark7r9UEHt2x8Z2-95" target="vCZI6ark7r9UEHt2x8Z2-106">
          <mxGeometry relative="1" as="geometry">
            <Array as="points">
              <mxPoint x="1110" y="120" />
              <mxPoint x="1110" y="430" />
              <mxPoint x="660" y="430" />
            </Array>
          </mxGeometry>
        </mxCell>
        <mxCell id="vCZI6ark7r9UEHt2x8Z2-105" style="edgeStyle=orthogonalEdgeStyle;rounded=0;orthogonalLoop=1;jettySize=auto;html=1;entryX=0;entryY=0.5;entryDx=0;entryDy=0;entryPerimeter=0;fillColor=#60a917;strokeColor=#2D7600;" edge="1" parent="vCZI6ark7r9UEHt2x8Z2-2" source="vCZI6ark7r9UEHt2x8Z2-40" target="vCZI6ark7r9UEHt2x8Z2-30">
          <mxGeometry relative="1" as="geometry">
            <Array as="points">
              <mxPoint x="210" y="270" />
              <mxPoint x="500" y="270" />
              <mxPoint x="500" y="640" />
            </Array>
          </mxGeometry>
        </mxCell>
        <mxCell id="vCZI6ark7r9UEHt2x8Z2-117" style="edgeStyle=orthogonalEdgeStyle;rounded=0;orthogonalLoop=1;jettySize=auto;html=1;exitX=1;exitY=0.5;exitDx=0;exitDy=0;exitPerimeter=0;entryX=0;entryY=0.25;entryDx=0;entryDy=0;entryPerimeter=0;" edge="1" parent="vCZI6ark7r9UEHt2x8Z2-2" source="vCZI6ark7r9UEHt2x8Z2-112" target="vCZI6ark7r9UEHt2x8Z2-76">
          <mxGeometry relative="1" as="geometry">
            <Array as="points">
              <mxPoint x="1080" y="640" />
              <mxPoint x="1080" y="420" />
              <mxPoint x="540" y="420" />
              <mxPoint x="540" y="150" />
            </Array>
          </mxGeometry>
        </mxCell>
        <mxCell id="vCZI6ark7r9UEHt2x8Z2-145" style="edgeStyle=orthogonalEdgeStyle;rounded=0;orthogonalLoop=1;jettySize=auto;html=1;entryX=0;entryY=0.5;entryDx=0;entryDy=0;entryPerimeter=0;fillColor=#f8cecc;strokeColor=#b85450;" edge="1" parent="vCZI6ark7r9UEHt2x8Z2-2" source="vCZI6ark7r9UEHt2x8Z2-144" target="vCZI6ark7r9UEHt2x8Z2-146">
          <mxGeometry relative="1" as="geometry">
            <mxPoint x="180" y="80" as="targetPoint" />
            <Array as="points">
              <mxPoint x="970" y="-30" />
              <mxPoint x="180" y="-30" />
              <mxPoint x="180" y="70" />
            </Array>
          </mxGeometry>
        </mxCell>
        <mxCell id="vCZI6ark7r9UEHt2x8Z2-157" style="edgeStyle=orthogonalEdgeStyle;rounded=0;orthogonalLoop=1;jettySize=auto;html=1;entryX=1;entryY=0.5;entryDx=0;entryDy=0;entryPerimeter=0;fillColor=#f8cecc;strokeColor=#b85450;" edge="1" parent="vCZI6ark7r9UEHt2x8Z2-2" source="vCZI6ark7r9UEHt2x8Z2-156" target="vCZI6ark7r9UEHt2x8Z2-128">
          <mxGeometry relative="1" as="geometry">
            <Array as="points">
              <mxPoint x="1040" y="-40" />
              <mxPoint x="500" y="-40" />
              <mxPoint x="500" y="195" />
            </Array>
          </mxGeometry>
        </mxCell>
        <mxCell id="vCZI6ark7r9UEHt2x8Z2-86" style="edgeStyle=orthogonalEdgeStyle;rounded=0;orthogonalLoop=1;jettySize=auto;html=1;entryX=0.5;entryY=1;entryDx=0;entryDy=0;entryPerimeter=0;" edge="1" parent="vCZI6ark7r9UEHt2x8Z2-2" source="vCZI6ark7r9UEHt2x8Z2-33" target="vCZI6ark7r9UEHt2x8Z2-85">
          <mxGeometry relative="1" as="geometry">
            <mxPoint x="350" y="760" as="targetPoint" />
            <Array as="points">
              <mxPoint x="420" y="813" />
            </Array>
          </mxGeometry>
        </mxCell>
        <mxCell id="vCZI6ark7r9UEHt2x8Z2-159" style="edgeStyle=orthogonalEdgeStyle;rounded=0;orthogonalLoop=1;jettySize=auto;html=1;entryX=1;entryY=0.5;entryDx=0;entryDy=0;entryPerimeter=0;fillColor=#f8cecc;strokeColor=#b85450;" edge="1" parent="vCZI6ark7r9UEHt2x8Z2-2" source="vCZI6ark7r9UEHt2x8Z2-141" target="vCZI6ark7r9UEHt2x8Z2-133">
          <mxGeometry relative="1" as="geometry">
            <mxPoint x="1030" y="160" as="targetPoint" />
            <Array as="points">
              <mxPoint x="1140" y="670" />
              <mxPoint x="1140" y="150" />
              <mxPoint x="1030" y="150" />
            </Array>
          </mxGeometry>
        </mxCell>
        <mxCell id="vCZI6ark7r9UEHt2x8Z2-3" value="&lt;div&gt;Пункт доставки&lt;/div&gt;" style="swimlane;html=1;startSize=40;fontStyle=0;collapsible=0;horizontal=0;swimlaneLine=1;swimlaneFillColor=#ffffff;strokeWidth=2;whiteSpace=wrap;fillColor=#d5e8d4;strokeColor=#82b366;" vertex="1" parent="1">
          <mxGeometry x="1190" y="310" width="490" height="420" as="geometry" />
        </mxCell>
        <mxCell id="vCZI6ark7r9UEHt2x8Z2-4" value="&lt;div&gt;Директор пункта доставки&lt;/div&gt;" style="swimlane;html=1;startSize=50;fontStyle=0;collapsible=0;horizontal=0;swimlaneLine=1;swimlaneFillColor=#ffffff;strokeWidth=2;whiteSpace=wrap;fillColor=#1ba1e2;fontColor=#ffffff;strokeColor=#006EAF;" vertex="1" parent="vCZI6ark7r9UEHt2x8Z2-3">
          <mxGeometry x="40" width="450" height="210" as="geometry" />
        </mxCell>
        <mxCell id="vCZI6ark7r9UEHt2x8Z2-49" style="edgeStyle=orthogonalEdgeStyle;rounded=0;orthogonalLoop=1;jettySize=auto;html=1;" edge="1" parent="vCZI6ark7r9UEHt2x8Z2-4" source="vCZI6ark7r9UEHt2x8Z2-47" target="vCZI6ark7r9UEHt2x8Z2-48">
          <mxGeometry relative="1" as="geometry" />
        </mxCell>
        <mxCell id="vCZI6ark7r9UEHt2x8Z2-47" value="" style="points=[[0.145,0.145,0],[0.5,0,0],[0.855,0.145,0],[1,0.5,0],[0.855,0.855,0],[0.5,1,0],[0.145,0.855,0],[0,0.5,0]];shape=mxgraph.bpmn.event;html=1;verticalLabelPosition=bottom;labelBackgroundColor=#ffffff;verticalAlign=top;align=center;perimeter=ellipsePerimeter;outlineConnect=0;aspect=fixed;outline=standard;symbol=general;fillColor=#d5e8d4;gradientColor=#97d077;strokeColor=#82b366;" vertex="1" parent="vCZI6ark7r9UEHt2x8Z2-4">
          <mxGeometry x="60" y="25" width="50" height="50" as="geometry" />
        </mxCell>
        <mxCell id="vCZI6ark7r9UEHt2x8Z2-48" value="Оформление запроса доставки товара" style="points=[[0.25,0,0],[0.5,0,0],[0.75,0,0],[1,0.25,0],[1,0.5,0],[1,0.75,0],[0.75,1,0],[0.5,1,0],[0.25,1,0],[0,0.75,0],[0,0.5,0],[0,0.25,0]];shape=mxgraph.bpmn.task;whiteSpace=wrap;rectStyle=rounded;size=10;html=1;container=1;expand=0;collapsible=0;taskMarker=abstract;" vertex="1" parent="vCZI6ark7r9UEHt2x8Z2-4">
          <mxGeometry x="130" y="10" width="120" height="80" as="geometry" />
        </mxCell>
        <mxCell id="vCZI6ark7r9UEHt2x8Z2-125" value="Приемка и оплата" style="points=[[0.25,0,0],[0.5,0,0],[0.75,0,0],[1,0.25,0],[1,0.5,0],[1,0.75,0],[0.75,1,0],[0.5,1,0],[0.25,1,0],[0,0.75,0],[0,0.5,0],[0,0.25,0]];shape=mxgraph.bpmn.task;whiteSpace=wrap;rectStyle=rounded;size=10;html=1;container=1;expand=0;collapsible=0;taskMarker=abstract;" vertex="1" parent="vCZI6ark7r9UEHt2x8Z2-4">
          <mxGeometry x="210" y="140" width="110" height="40" as="geometry" />
        </mxCell>
        <mxCell id="vCZI6ark7r9UEHt2x8Z2-151" style="edgeStyle=orthogonalEdgeStyle;rounded=0;orthogonalLoop=1;jettySize=auto;html=1;entryX=0.75;entryY=0;entryDx=0;entryDy=0;entryPerimeter=0;exitX=1;exitY=0.5;exitDx=0;exitDy=0;exitPerimeter=0;" edge="1" parent="vCZI6ark7r9UEHt2x8Z2-4" source="vCZI6ark7r9UEHt2x8Z2-149" target="vCZI6ark7r9UEHt2x8Z2-150">
          <mxGeometry relative="1" as="geometry" />
        </mxCell>
        <mxCell id="vCZI6ark7r9UEHt2x8Z2-154" style="edgeStyle=orthogonalEdgeStyle;rounded=0;orthogonalLoop=1;jettySize=auto;html=1;entryX=0;entryY=0.25;entryDx=0;entryDy=0;entryPerimeter=0;exitX=0;exitY=0.5;exitDx=0;exitDy=0;exitPerimeter=0;" edge="1" parent="vCZI6ark7r9UEHt2x8Z2-4" source="vCZI6ark7r9UEHt2x8Z2-149" target="vCZI6ark7r9UEHt2x8Z2-153">
          <mxGeometry relative="1" as="geometry">
            <Array as="points">
              <mxPoint x="295" y="35" />
              <mxPoint x="295" y="120" />
              <mxPoint x="350" y="120" />
            </Array>
          </mxGeometry>
        </mxCell>
        <mxCell id="vCZI6ark7r9UEHt2x8Z2-149" value="&lt;div&gt;Решение &lt;br&gt;&lt;/div&gt;&lt;div&gt;по спору удовлетворено?&lt;/div&gt;" style="points=[[0.25,0.25,0],[0.5,0,0],[0.75,0.25,0],[1,0.5,0],[0.75,0.75,0],[0.5,1,0],[0.25,0.75,0],[0,0.5,0]];shape=mxgraph.bpmn.gateway2;html=1;verticalLabelPosition=bottom;labelBackgroundColor=#ffffff;verticalAlign=top;align=center;perimeter=rhombusPerimeter;outlineConnect=0;outline=none;symbol=none;" vertex="1" parent="vCZI6ark7r9UEHt2x8Z2-4">
          <mxGeometry x="315" y="10" width="50" height="50" as="geometry" />
        </mxCell>
        <mxCell id="vCZI6ark7r9UEHt2x8Z2-152" style="edgeStyle=orthogonalEdgeStyle;rounded=0;orthogonalLoop=1;jettySize=auto;html=1;entryX=1;entryY=0.5;entryDx=0;entryDy=0;entryPerimeter=0;" edge="1" parent="vCZI6ark7r9UEHt2x8Z2-4" source="vCZI6ark7r9UEHt2x8Z2-150" target="vCZI6ark7r9UEHt2x8Z2-125">
          <mxGeometry relative="1" as="geometry" />
        </mxCell>
        <mxCell id="vCZI6ark7r9UEHt2x8Z2-150" value="Да" style="points=[[0.25,0,0],[0.5,0,0],[0.75,0,0],[1,0.25,0],[1,0.5,0],[1,0.75,0],[0.75,1,0],[0.5,1,0],[0.25,1,0],[0,0.75,0],[0,0.5,0],[0,0.25,0]];shape=mxgraph.bpmn.task;whiteSpace=wrap;rectStyle=rounded;size=10;html=1;container=1;expand=0;collapsible=0;taskMarker=abstract;" vertex="1" parent="vCZI6ark7r9UEHt2x8Z2-4">
          <mxGeometry x="350" y="150" width="90" height="22.5" as="geometry" />
        </mxCell>
        <mxCell id="vCZI6ark7r9UEHt2x8Z2-153" value="Нет" style="points=[[0.25,0,0],[0.5,0,0],[0.75,0,0],[1,0.25,0],[1,0.5,0],[1,0.75,0],[0.75,1,0],[0.5,1,0],[0.25,1,0],[0,0.75,0],[0,0.5,0],[0,0.25,0]];shape=mxgraph.bpmn.task;whiteSpace=wrap;rectStyle=rounded;size=10;html=1;container=1;expand=0;collapsible=0;taskMarker=abstract;" vertex="1" parent="vCZI6ark7r9UEHt2x8Z2-4">
          <mxGeometry x="315" y="115" width="90" height="25" as="geometry" />
        </mxCell>
        <mxCell id="vCZI6ark7r9UEHt2x8Z2-39" value="Приемка товара" style="swimlane;html=1;startSize=50;fontStyle=0;collapsible=0;horizontal=0;swimlaneLine=1;swimlaneFillColor=#ffffff;strokeWidth=2;whiteSpace=wrap;fillColor=#a20025;fontColor=#ffffff;strokeColor=#6F0000;" vertex="1" parent="vCZI6ark7r9UEHt2x8Z2-3">
          <mxGeometry x="40" y="210" width="450" height="210" as="geometry" />
        </mxCell>
        <mxCell id="vCZI6ark7r9UEHt2x8Z2-102" style="edgeStyle=orthogonalEdgeStyle;rounded=0;orthogonalLoop=1;jettySize=auto;html=1;" edge="1" parent="vCZI6ark7r9UEHt2x8Z2-39" source="vCZI6ark7r9UEHt2x8Z2-99" target="vCZI6ark7r9UEHt2x8Z2-101">
          <mxGeometry relative="1" as="geometry" />
        </mxCell>
        <mxCell id="vCZI6ark7r9UEHt2x8Z2-99" value="Доставка" style="points=[[0.25,0,0],[0.5,0,0],[0.75,0,0],[1,0.25,0],[1,0.5,0],[1,0.75,0],[0.75,1,0],[0.5,1,0],[0.25,1,0],[0,0.75,0],[0,0.5,0],[0,0.25,0]];shape=mxgraph.bpmn.task;whiteSpace=wrap;rectStyle=rounded;size=10;html=1;container=1;expand=0;collapsible=0;taskMarker=abstract;" vertex="1" parent="vCZI6ark7r9UEHt2x8Z2-39">
          <mxGeometry x="71" y="20" width="120" height="80" as="geometry" />
        </mxCell>
        <mxCell id="vCZI6ark7r9UEHt2x8Z2-120" style="edgeStyle=orthogonalEdgeStyle;rounded=0;orthogonalLoop=1;jettySize=auto;html=1;entryX=0.5;entryY=1;entryDx=0;entryDy=0;entryPerimeter=0;" edge="1" parent="vCZI6ark7r9UEHt2x8Z2-39" source="vCZI6ark7r9UEHt2x8Z2-101" target="vCZI6ark7r9UEHt2x8Z2-119">
          <mxGeometry relative="1" as="geometry">
            <Array as="points">
              <mxPoint x="220" y="145" />
              <mxPoint x="220" y="60" />
              <mxPoint x="259" y="60" />
            </Array>
          </mxGeometry>
        </mxCell>
        <mxCell id="vCZI6ark7r9UEHt2x8Z2-138" style="edgeStyle=orthogonalEdgeStyle;rounded=0;orthogonalLoop=1;jettySize=auto;html=1;entryX=0;entryY=0.5;entryDx=0;entryDy=0;entryPerimeter=0;exitX=0.5;exitY=1;exitDx=0;exitDy=0;exitPerimeter=0;" edge="1" parent="vCZI6ark7r9UEHt2x8Z2-39" source="vCZI6ark7r9UEHt2x8Z2-101" target="vCZI6ark7r9UEHt2x8Z2-137">
          <mxGeometry relative="1" as="geometry" />
        </mxCell>
        <mxCell id="vCZI6ark7r9UEHt2x8Z2-101" value="Проверка товара" style="points=[[0.25,0.25,0],[0.5,0,0],[0.75,0.25,0],[1,0.5,0],[0.75,0.75,0],[0.5,1,0],[0.25,0.75,0],[0,0.5,0]];shape=mxgraph.bpmn.gateway2;html=1;verticalLabelPosition=bottom;labelBackgroundColor=#ffffff;verticalAlign=top;align=center;perimeter=rhombusPerimeter;outlineConnect=0;outline=none;symbol=none;" vertex="1" parent="vCZI6ark7r9UEHt2x8Z2-39">
          <mxGeometry x="106" y="120" width="50" height="50" as="geometry" />
        </mxCell>
        <mxCell id="vCZI6ark7r9UEHt2x8Z2-119" value="Удовлетворяет" style="points=[[0.25,0,0],[0.5,0,0],[0.75,0,0],[1,0.25,0],[1,0.5,0],[1,0.75,0],[0.75,1,0],[0.5,1,0],[0.25,1,0],[0,0.75,0],[0,0.5,0],[0,0.25,0]];shape=mxgraph.bpmn.task;whiteSpace=wrap;rectStyle=rounded;size=10;html=1;container=1;expand=0;collapsible=0;taskMarker=abstract;" vertex="1" parent="vCZI6ark7r9UEHt2x8Z2-39">
          <mxGeometry x="199" y="20" width="120" height="20" as="geometry" />
        </mxCell>
        <mxCell id="vCZI6ark7r9UEHt2x8Z2-137" value="Не удовлетворяет" style="points=[[0.25,0,0],[0.5,0,0],[0.75,0,0],[1,0.25,0],[1,0.5,0],[1,0.75,0],[0.75,1,0],[0.5,1,0],[0.25,1,0],[0,0.75,0],[0,0.5,0],[0,0.25,0]];shape=mxgraph.bpmn.task;whiteSpace=wrap;rectStyle=rounded;size=10;html=1;container=1;expand=0;collapsible=0;taskMarker=abstract;" vertex="1" parent="vCZI6ark7r9UEHt2x8Z2-39">
          <mxGeometry x="199" y="170" width="120" height="20" as="geometry" />
        </mxCell>
        <mxCell id="vCZI6ark7r9UEHt2x8Z2-124" style="edgeStyle=orthogonalEdgeStyle;rounded=0;orthogonalLoop=1;jettySize=auto;html=1;entryX=0.432;entryY=1.016;entryDx=0;entryDy=0;entryPerimeter=0;" edge="1" parent="vCZI6ark7r9UEHt2x8Z2-3" source="vCZI6ark7r9UEHt2x8Z2-119" target="vCZI6ark7r9UEHt2x8Z2-125">
          <mxGeometry relative="1" as="geometry">
            <mxPoint x="299" y="170" as="targetPoint" />
          </mxGeometry>
        </mxCell>
        <mxCell id="vCZI6ark7r9UEHt2x8Z2-50" style="edgeStyle=orthogonalEdgeStyle;rounded=0;orthogonalLoop=1;jettySize=auto;html=1;entryX=1;entryY=0.5;entryDx=0;entryDy=0;entryPerimeter=0;exitX=0.5;exitY=0;exitDx=0;exitDy=0;exitPerimeter=0;fillColor=#1ba1e2;strokeColor=#006EAF;" edge="1" parent="1" source="vCZI6ark7r9UEHt2x8Z2-48" target="vCZI6ark7r9UEHt2x8Z2-52">
          <mxGeometry relative="1" as="geometry">
            <mxPoint x="1309" y="310" as="sourcePoint" />
            <mxPoint x="925" y="115" as="targetPoint" />
            <Array as="points">
              <mxPoint x="1420" y="60" />
              <mxPoint x="960" y="60" />
              <mxPoint x="960" y="115" />
            </Array>
          </mxGeometry>
        </mxCell>
        <mxCell id="vCZI6ark7r9UEHt2x8Z2-98" style="edgeStyle=orthogonalEdgeStyle;rounded=0;orthogonalLoop=1;jettySize=auto;html=1;entryX=0;entryY=0.5;entryDx=0;entryDy=0;entryPerimeter=0;fillColor=#bac8d3;strokeColor=#23445d;" edge="1" parent="1" source="vCZI6ark7r9UEHt2x8Z2-31" target="vCZI6ark7r9UEHt2x8Z2-99">
          <mxGeometry relative="1" as="geometry">
            <mxPoint x="1280" y="570" as="targetPoint" />
          </mxGeometry>
        </mxCell>
        <mxCell id="vCZI6ark7r9UEHt2x8Z2-126" style="edgeStyle=orthogonalEdgeStyle;rounded=0;orthogonalLoop=1;jettySize=auto;html=1;entryX=1;entryY=0.5;entryDx=0;entryDy=0;entryPerimeter=0;fillColor=#d5e8d4;strokeColor=#82b366;" edge="1" parent="1" source="vCZI6ark7r9UEHt2x8Z2-125" target="vCZI6ark7r9UEHt2x8Z2-156">
          <mxGeometry relative="1" as="geometry">
            <mxPoint x="430" y="240" as="targetPoint" />
            <Array as="points">
              <mxPoint x="1495" y="115" />
            </Array>
          </mxGeometry>
        </mxCell>
        <mxCell id="vCZI6ark7r9UEHt2x8Z2-140" style="edgeStyle=orthogonalEdgeStyle;rounded=0;orthogonalLoop=1;jettySize=auto;html=1;entryX=1;entryY=0.5;entryDx=0;entryDy=0;entryPerimeter=0;fillColor=#d5e8d4;strokeColor=#82b366;" edge="1" parent="1" source="vCZI6ark7r9UEHt2x8Z2-137" target="vCZI6ark7r9UEHt2x8Z2-144">
          <mxGeometry relative="1" as="geometry">
            <mxPoint x="870" y="670" as="targetPoint" />
            <Array as="points">
              <mxPoint x="1489" y="780" />
              <mxPoint x="1180" y="780" />
              <mxPoint x="1180" y="330" />
            </Array>
          </mxGeometry>
        </mxCell>
        <mxCell id="vCZI6ark7r9UEHt2x8Z2-147" style="edgeStyle=orthogonalEdgeStyle;rounded=0;orthogonalLoop=1;jettySize=auto;html=1;entryX=0.5;entryY=0;entryDx=0;entryDy=0;entryPerimeter=0;fillColor=#0050ef;strokeColor=#001DBC;" edge="1" parent="1" source="vCZI6ark7r9UEHt2x8Z2-146" target="vCZI6ark7r9UEHt2x8Z2-149">
          <mxGeometry relative="1" as="geometry">
            <mxPoint x="1570" y="335" as="targetPoint" />
            <Array as="points">
              <mxPoint x="270" y="40" />
              <mxPoint x="1570" y="40" />
            </Array>
          </mxGeometry>
        </mxCell>
        <mxCell id="vCZI6ark7r9UEHt2x8Z2-155" style="edgeStyle=orthogonalEdgeStyle;rounded=0;orthogonalLoop=1;jettySize=auto;html=1;exitX=1;exitY=0.5;exitDx=0;exitDy=0;exitPerimeter=0;entryX=0.5;entryY=1;entryDx=0;entryDy=0;entryPerimeter=0;fillColor=#d5e8d4;strokeColor=#82b366;" edge="1" parent="1" source="vCZI6ark7r9UEHt2x8Z2-153" target="vCZI6ark7r9UEHt2x8Z2-141">
          <mxGeometry relative="1" as="geometry">
            <Array as="points">
              <mxPoint x="1730" y="438" />
              <mxPoint x="1730" y="760" />
              <mxPoint x="950" y="760" />
            </Array>
          </mxGeometry>
        </mxCell>
      </root>
    </mxGraphModel>
  </diagram>
</mxfile>
